<?xml version="1.0" encoding="UTF-8" standalone="no"?>
<!-- Created with Inkscape (http://www.inkscape.org/) -->

<svg
   xmlns:dc="http://purl.org/dc/elements/1.1/"
   xmlns:cc="http://creativecommons.org/ns#"
   xmlns:rdf="http://www.w3.org/1999/02/22-rdf-syntax-ns#"
   xmlns:svg="http://www.w3.org/2000/svg"
   xmlns="http://www.w3.org/2000/svg"
   xmlns:sodipodi="http://sodipodi.sourceforge.net/DTD/sodipodi-0.dtd"
   xmlns:inkscape="http://www.inkscape.org/namespaces/inkscape"
   width="371.49182"
   height="178.66641"
   id="svg2"
   version="1.1"
   inkscape:version="0.48.3.1 r9886"
   sodipodi:docname="push01.svg">
  <defs
     id="defs4">
    <marker
       inkscape:stockid="Arrow1Mend"
       orient="auto"
       refY="0"
       refX="0"
       id="Arrow1Mend"
       style="overflow:visible">
      <path
         id="path4000"
         d="M 0,0 5,-5 -12.5,0 5,5 0,0 z"
         style="fill-rule:evenodd;stroke:#000000;stroke-width:1pt"
         transform="matrix(-0.4,0,0,-0.4,-4,0)"
         inkscape:connector-curvature="0" />
    </marker>
    <marker
       inkscape:stockid="Arrow1Mstart"
       orient="auto"
       refY="0"
       refX="0"
       id="Arrow1Mstart"
       style="overflow:visible">
      <path
         id="path3997"
         d="M 0,0 5,-5 -12.5,0 5,5 0,0 z"
         style="fill-rule:evenodd;stroke:#000000;stroke-width:1pt"
         transform="matrix(0.4,0,0,0.4,4,0)"
         inkscape:connector-curvature="0" />
    </marker>
  </defs>
  <sodipodi:namedview
     id="base"
     pagecolor="#ffffff"
     bordercolor="#666666"
     borderopacity="1.0"
     inkscape:pageopacity="0.0"
     inkscape:pageshadow="2"
     inkscape:zoom="1.8435644"
     inkscape:cx="174.21157"
     inkscape:cy="97.224061"
     inkscape:document-units="px"
     inkscape:current-layer="layer1"
     showgrid="false"
     inkscape:window-width="2560"
     inkscape:window-height="1364"
     inkscape:window-x="0"
     inkscape:window-y="24"
     inkscape:window-maximized="1"
     showborder="false"
     fit-margin-top="0"
     fit-margin-left="0"
     fit-margin-right="0"
     fit-margin-bottom="0" />
  <metadata
     id="metadata7">
    <rdf:RDF>
      <cc:Work
         rdf:about="">
        <dc:format>image/svg+xml</dc:format>
        <dc:type
           rdf:resource="http://purl.org/dc/dcmitype/StillImage" />
        <dc:title></dc:title>
      </cc:Work>
    </rdf:RDF>
  </metadata>
  <g
     inkscape:label="Calque 1"
     inkscape:groupmode="layer"
     id="layer1"
     transform="translate(-15.49724,-152.49111)">
    <path
       transform="translate(18.713741,149.43877)"
       sodipodi:type="arc"
       style="fill:#000000;fill-opacity:0;stroke:#000000;stroke-width:1;stroke-miterlimit:4;stroke-opacity:1;stroke-dasharray:none;stroke-dashoffset:0"
       id="path2985-5-7-0"
       sodipodi:cx="115.26585"
       sodipodi:cy="169.56143"
       sodipodi:rx="11.662191"
       sodipodi:ry="11.662191"
       d="m 126.92804,169.56143 c 0,6.44085 -5.22134,11.66219 -11.66219,11.66219 -6.44085,0 -11.6622,-5.22134 -11.6622,-11.66219 0,-6.44085 5.22135,-11.66219 11.6622,-11.66219 6.44085,0 11.66219,5.22134 11.66219,11.66219 z" />
    <text
       xml:space="preserve"
       style="font-size:4px;font-style:normal;font-weight:normal;line-height:1000%;letter-spacing:0px;word-spacing:0px;fill:#000000;fill-opacity:1;stroke:none;font-family:Sans"
       x="74.312569"
       y="306.52438"
       id="text3041"
       sodipodi:linespacing="1000%"><tspan
         sodipodi:role="line"
         id="tspan3043"
         x="74.312569"
         y="306.52438"
         style="line-height:1000%" /></text>
    <text
       xml:space="preserve"
       style="font-size:10px;font-style:normal;font-weight:normal;line-height:125%;letter-spacing:0px;word-spacing:0px;fill:#000000;fill-opacity:1;stroke:none;font-family:Sans"
       x="207.74973"
       y="284.28485"
       id="text3045"
       sodipodi:linespacing="125%"><tspan
         sodipodi:role="line"
         id="tspan3047"
         x="207.74973"
         y="284.28485" /></text>
    <path
       sodipodi:type="arc"
       style="fill:#7e9d00;fill-opacity:0;stroke:#000000;stroke-width:1;stroke-miterlimit:4;stroke-opacity:1;stroke-dasharray:none;stroke-dashoffset:0"
       id="path2985"
       sodipodi:cx="115.26585"
       sodipodi:cy="169.56143"
       sodipodi:rx="11.662191"
       sodipodi:ry="11.662191"
       d="m 126.92804,169.56143 c 0,6.44085 -5.22134,11.66219 -11.66219,11.66219 -6.44085,0 -11.6622,-5.22134 -11.6622,-11.66219 0,-6.44085 5.22135,-11.66219 11.6622,-11.66219 6.44085,0 11.66219,5.22134 11.66219,11.66219 z"
       transform="translate(100.6203,-4.9151446)" />
    <text
       xml:space="preserve"
       style="font-size:8px;font-style:normal;font-weight:normal;line-height:125%;letter-spacing:0px;word-spacing:0px;fill:#000000;fill-opacity:1;stroke:none;font-family:Sans"
       x="14.319506"
       y="169.11992"
       id="text3049"
       sodipodi:linespacing="125%"><tspan
         sodipodi:role="line"
         id="tspan3051"
         x="14.319506"
         y="169.11992"
         style="font-size:12px">Publisher</tspan></text>
    <path
       transform="translate(173.84801,65.362511)"
       sodipodi:type="arc"
       style="fill:#000000;fill-opacity:0;stroke:#000000;stroke-width:1;stroke-miterlimit:4;stroke-opacity:1;stroke-dasharray:none;stroke-dashoffset:0"
       id="path2985-5-7"
       sodipodi:cx="115.26585"
       sodipodi:cy="169.56143"
       sodipodi:rx="11.662191"
       sodipodi:ry="11.662191"
       d="m 126.92804,169.56143 c 0,6.44085 -5.22134,11.66219 -11.66219,11.66219 -6.44085,0 -11.6622,-5.22134 -11.6622,-11.66219 0,-6.44085 5.22135,-11.66219 11.6622,-11.66219 6.44085,0 11.66219,5.22134 11.66219,11.66219 z" />
    <text
       xml:space="preserve"
       style="font-size:8px;font-style:normal;font-weight:normal;line-height:125%;letter-spacing:0px;word-spacing:0px;fill:#000000;fill-opacity:1;stroke:none;font-family:Sans"
       x="14.319506"
       y="239.39758"
       id="text3049-7"
       sodipodi:linespacing="125%"><tspan
         sodipodi:role="line"
         id="tspan3051-5"
         x="14.319506"
         y="239.39758"
         style="font-size:12px">Hub</tspan></text>
    <path
       transform="translate(259.55155,148.89634)"
       sodipodi:type="arc"
       style="fill:#000000;fill-opacity:0;stroke:#000000;stroke-width:1;stroke-miterlimit:4;stroke-opacity:1;stroke-dasharray:none;stroke-dashoffset:0"
       id="path2985-5"
       sodipodi:cx="115.26585"
       sodipodi:cy="169.56143"
       sodipodi:rx="11.662191"
       sodipodi:ry="11.662191"
       d="m 126.92804,169.56143 c 0,6.44085 -5.22134,11.66219 -11.66219,11.66219 -6.44085,0 -11.6622,-5.22134 -11.6622,-11.66219 0,-6.44085 5.22135,-11.66219 11.6622,-11.66219 6.44085,0 11.66219,5.22134 11.66219,11.66219 z" />
    <text
       xml:space="preserve"
       style="font-size:8px;font-style:normal;font-weight:normal;line-height:125%;letter-spacing:0px;word-spacing:0px;fill:#000000;fill-opacity:1;stroke:none;font-family:Sans"
       x="14.706224"
       y="322.9314"
       id="text3049-3"
       sodipodi:linespacing="125%"><tspan
         sodipodi:role="line"
         id="tspan3051-8"
         x="14.706224"
         y="322.9314"
         style="font-size:12px">Subscriber</tspan></text>
    <path
       transform="translate(100.6203,65.362511)"
       sodipodi:type="arc"
       style="fill:#000000;fill-opacity:0;stroke:#000000;stroke-width:1;stroke-miterlimit:4;stroke-opacity:1;stroke-dasharray:none;stroke-dashoffset:0"
       id="path2985-5-7-0-7"
       sodipodi:cx="115.26585"
       sodipodi:cy="169.56143"
       sodipodi:rx="11.662191"
       sodipodi:ry="11.662191"
       d="m 126.92804,169.56143 c 0,6.44085 -5.22134,11.66219 -11.66219,11.66219 -6.44085,0 -11.6622,-5.22134 -11.6622,-11.66219 0,-6.44085 5.22135,-11.66219 11.6622,-11.66219 6.44085,0 11.66219,5.22134 11.66219,11.66219 z" />
    <path
       transform="translate(173.84801,148.89634)"
       sodipodi:type="arc"
       style="fill:#000000;fill-opacity:0;stroke:#000000;stroke-width:1;stroke-miterlimit:4;stroke-opacity:1;stroke-dasharray:none;stroke-dashoffset:0"
       id="path2985-5-7-0-2"
       sodipodi:cx="115.26585"
       sodipodi:cy="169.56143"
       sodipodi:rx="11.662191"
       sodipodi:ry="11.662191"
       d="m 126.92804,169.56143 c 0,6.44085 -5.22134,11.66219 -11.66219,11.66219 -6.44085,0 -11.6622,-5.22134 -11.6622,-11.66219 0,-6.44085 5.22135,-11.66219 11.6622,-11.66219 6.44085,0 11.66219,5.22134 11.66219,11.66219 z" />
    <path
       transform="translate(100.6203,148.89634)"
       sodipodi:type="arc"
       style="fill:#000000;fill-opacity:0;stroke:#000000;stroke-width:1;stroke-miterlimit:4;stroke-opacity:1;stroke-dasharray:none;stroke-dashoffset:0"
       id="path2985-5-7-0-2-1"
       sodipodi:cx="115.26585"
       sodipodi:cy="169.56143"
       sodipodi:rx="11.662191"
       sodipodi:ry="11.662191"
       d="m 126.92804,169.56143 c 0,6.44085 -5.22134,11.66219 -11.66219,11.66219 -6.44085,0 -11.6622,-5.22134 -11.6622,-11.66219 0,-6.44085 5.22135,-11.66219 11.6622,-11.66219 6.44085,0 11.66219,5.22134 11.66219,11.66219 z" />
    <path
       style="fill:none;stroke:#000000;stroke-width:1px;stroke-linecap:butt;stroke-linejoin:miter;stroke-opacity:1;marker-start:url(#Arrow1Mstart)"
       d="m 215.88614,180.68119 0,35.80022"
       id="path3173"
       inkscape:connector-curvature="0" />
    <path
       style="fill:none;stroke:#000000;stroke-width:1px;stroke-linecap:butt;stroke-linejoin:miter;stroke-opacity:1;marker-start:url(#Arrow1Mstart);marker-end:url(#Arrow1Mend)"
       d="m 289.65628,250.11191 0,49.90333"
       id="path3177"
       inkscape:connector-curvature="0" />
    <path
       style="fill:none;stroke:#000000;stroke-width:1px;stroke-linecap:butt;stroke-linejoin:miter;stroke-opacity:1;marker-start:url(#Arrow1Mstart);marker-end:url(#Arrow1Mend)"
       d="m 301.58969,244.14521 61.83673,61.83674"
       id="path3179"
       inkscape:connector-curvature="0" />
    <path
       style="fill:none;stroke:#000000;stroke-width:1px;stroke-linecap:butt;stroke-linejoin:miter;stroke-opacity:1;marker-start:url(#Arrow1Mstart);marker-end:none"
       d="m 227.81955,174.17206 46.91998,46.91998"
       id="path3181"
       inkscape:connector-curvature="0" />
    <path
       style="fill:none;stroke:#000000;stroke-width:1px;stroke-linecap:butt;stroke-linejoin:miter;stroke-opacity:1;marker-start:url(#Arrow1Mstart);marker-end:url(#Arrow1Mend)"
       d="m 201.2406,245.77249 -57.76853,57.76853"
       id="path3183"
       inkscape:connector-curvature="0" />
    <path
       style="fill:none;stroke:#000000;stroke-width:1px;stroke-linecap:butt;stroke-linejoin:miter;stroke-opacity:1;marker-start:url(#Arrow1Mstart);marker-end:url(#Arrow1Mend)"
       d="m 277.18045,246.85735 -54.78518,54.78518"
       id="path3185"
       inkscape:connector-curvature="0" />
  </g>
</svg>
